:FULLY-SPECIFIED
:FORCE-ALL-JOINTS-BE-3DOF
:DEGREES
781
root 1.6931 16.3244 18.6791 -25.7124 81.0469 327.847
lfemur -39.0603 16.0423 -15.7074
ltibia 51.84 0 0
lfoot -22.3077 19.5622 0
ltoes 20.0661 0 0
rfemur -14.9716 -23.2349 22.0509
rtibia 50.1466 0 0
rfoot -21.244 -34.6279 0
rtoes -25.426 0 0
lowerback 1.00456 4.63693 -0.774467
upperback -1.03559 6.17284 -3.81639
thorax -1.28341 3.09783 -3.6035
lowerneck -5.34044 -6.55702 -0.732023
upperneck -2.7764 -8.60196 5.30485
head 0.310855 -4.23202 1.59031
lclavicle 5.3945e-14 -5.22056e-15 0
lhumerus -55.9353 -11.3821 94.6861
lradius 70.8555 0 0
lwrist 13.0246 0 0
lhand -18.9886 -4.87413 0
lfingers 7.12502 0 0
lthumb 7.31609 24.983 0
rclavicle 5.3945e-14 -5.22056e-15 0
rhumerus -31.0912 47.9013 -112.445
rradius 79.1499 0 0
rwrist 6.25849 0 0
rhand -23.3389 -20.7865 0
rfingers 7.12502 0 0
rthumb 3.11615 -770.752 0
782
root 1.68551 16.3422 18.7737 -22.7167 79.4563 330.878
lfemur -39.1044 15.0652 -15.3568
ltibia 51.9723 0 0
lfoot -22.0766 18.3125 0
ltoes 19.6364 0 0
rfemur -14.8367 -22.3686 21.9361
rtibia 49.3606 0 0
rfoot -21.7551 -34.0051 0
rtoes -25.7209 0 0
lowerback 1.00256 4.6139 -0.575876
upperback -1.00491 6.14662 -3.73191
thorax -1.2408 3.08284 -3.62385
lowerneck -5.37536 -6.41327 -0.647781
upperneck -2.7321 -8.41947 5.17683
head 0.316182 -4.14322 1.53994
lclavicle 4.7171e-14 -4.75383e-15 0
lhumerus -55.9828 -11.2555 94.6491
lradius 70.821 0 0
lwrist 13.6306 0 0
lhand -18.6084 -4.44098 0
lfingers 7.12502 0 0
lthumb 7.68305 25.4035 0
rclavicle 4.7171e-14 -4.75383e-15 0
rhumerus -31.5563 47.7016 -112.805
rradius 78.7926 0 0
rwrist 6.18 0 0
rhand -23.4332 -21.2173 0
rfingers 7.12502 0 0
rthumb 3.02523 -771.188 0
783
root 1.67793 16.36 18.8682 -19.9671 77.4548 333.663
lfemur -39.1707 13.9981 -15.0101
ltibia 52.1677 0 0
lfoot -21.8712 16.8936 0
ltoes 19.1254 0 0
rfemur -14.7308 -21.452 21.8092
rtibia 48.6505 0 0
rfoot -22.176 -33.2056 0
rtoes -25.835 0 0
lowerback 1.01286 4.59092 -0.371327
upperback -0.968479 6.12035 -3.63866
thorax -1.19978 3.06788 -3.63966
lowerneck -5.41376 -6.26555 -0.560816
upperneck -2.67897 -8.23237 5.04063
head 0.324442 -4.05203 1.48636
lclavicle 3.93002e-14 -4.25414e-15 0
lhumerus -56.0117 -11.1146 94.5911
lradius 70.7491 0 0
lwrist 14.3006 0 0
lhand -18.2334 -3.97621 0
lfingers 7.12502 0 0
lthumb 8.04499 25.855 0
rclavicle 3.93002e-14 -4.25414e-15 0
rhumerus -31.994 47.505 -113.153
rradius 78.4313 0 0
rwrist 6.09479 0 0
rhand -23.5189 -21.6832 0
rfingers 7.12502 0 0
rthumb 2.94258 -771.66 0
784
root 1.67034 16.3778 18.9627 -17.4479 75.0887 336.218
lfemur -39.2558 12.8554 -14.666
ltibia 52.4118 0 0
lfoot -21.6875 15.3335 0
ltoes 18.5457 0 0
rfemur -14.6478 -20.492 21.6724
rtibia 48.0068 0 0
rfoot -22.5145 -32.2515 0
rtoes -25.7884 0 0
lowerback 1.03381 4.5685 -0.161717
upperback -0.927074 6.09468 -3.53763
thorax -1.1601 3.05329 -3.6513
lowerneck -5.45502 -6.11442 -0.471332
upperneck -2.61789 -8.04132 4.89741
head 0.335347 -3.95878 1.43002
lclavicle 3.05016e-14 -3.72765e-15 0
lhumerus -56.0237 -10.9612 94.5144
lradius 70.6415 0 0
lwrist 15.0237 0 0
lhand -17.8634 -3.48478 0
lfingers 7.12502 0 0
lthumb 8.40202 26.3324 0
rclavicle 3.05016e-14 -3.72765e-15 0
rhumerus -32.4045 47.3122 -113.489
rradius 78.0667 0 0
rwrist 6.00276 0 0
rhand -23.5939 -22.1773 0
rfingers 7.12502 0 0
rthumb 2.87034 -772.16 0
785
root 1.66276 16.3956 19.0572 -15.1431 72.4047 338.557
lfemur -39.3561 11.6518 -14.3229
ltibia 52.6903 0 0
lfoot -21.5214 13.6601 0
ltoes 17.9098 0 0
rfemur -14.5816 -19.4954 21.528
rtibia 47.4202 0 0
rfoot -22.7783 -31.1647 0
rtoes -25.6017 0 0
lowerback 1.06374 4.54715 0.0520578
upperback -0.88148 6.0703 -3.42982
thorax -1.12156 3.0394 -3.6591
lowerneck -5.49851 -5.96046 -0.379537
upperneck -2.54973 -7.84702 4.74835
head 0.348614 -3.86381 1.37133
lclavicle 2.09442e-14 -3.18056e-15 0
lhumerus -56.0203 -10.7969 94.4209
lradius 70.4999 0 0
lwrist 15.7889 0 0
lhand -17.4984 -2.97163 0
lfingers 7.12502 0 0
lthumb 8.75429 26.8309 0
rclavicle 2.09442e-14 -3.18056e-15 0
rhumerus -32.7878 47.1236 -113.81
rradius 77.6996 0 0
rwrist 5.90378 0 0
rhand -23.6559 -22.6929 0
rfingers 7.12502 0 0
rthumb 2.81067 -772.681 0
786
root 1.65517 16.4133 19.1517 -13.0369 69.4491 340.693
lfemur -39.468 10.4016 -13.9794
ltibia 52.9888 0 0
lfoot -21.3689 11.9016 0
ltoes 17.2304 0 0
rfemur -14.5261 -18.469 21.3783
rtibia 46.8813 0 0
rfoot -22.9752 -29.9671 0
rtoes -25.295 0 0
lowerback 1.101 4.52739 0.2691
upperback -0.83248 6.04787 -3.31619
thorax -1.08392 3.02656 -3.66343
lowerneck -5.54361 -5.80423 -0.285635
upperneck -2.47535 -7.65013 4.59461
head 0.363957 -3.76746 1.3107
lclavicle 1.0797e-14 -2.61904e-15 0
lhumerus -56.0031 -10.6234 94.3129
lradius 70.3259 0 0
lwrist 16.5856 0 0
lhand -17.1381 -2.44172 0
lfingers 7.12502 0 0
lthumb 9.10194 27.3456 0
rclavicle 1.0797e-14 -2.61904e-15 0
rhumerus -33.1441 46.9394 -114.115
rradius 77.3309 0 0
rwrist 5.79774 0 0
rhand -23.7027 -23.2232 0
rfingers 7.12502 0 0
rthumb 2.7657 -773.216 0
787
root 1.64759 16.4311 19.2462 -11.1136 66.2684 342.643
lfemur -39.588 9.1196 -13.6341
ltibia 53.293 0 0
lfoot -21.2257 10.0859 0
ltoes 16.5199 0 0
rfemur -14.4751 -17.4196 21.2254
rtibia 46.3807 0 0
rfoot -23.1131 -28.6807 0
rtoes -24.8888 0 0
lowerback 1.14393 4.5097 0.488514
upperback -0.780858 6.02806 -3.19775
thorax -1.04694 3.01511 -3.66464
lowerneck -5.58969 -5.6463 -0.189833
upperneck -2.39563 -7.45134 4.43737
head 0.381091 -3.67007 1.24857
lclavicle 2.2894e-16 -2.04928e-15 0
lhumerus -55.9735 -10.4424 94.1923
lradius 70.1213 0 0
lwrist 17.4028 0 0
lhand -16.7824 -1.89998 0
lfingers 7.12502 0 0
lthumb 9.44509 27.8716 0
rclavicle 2.2894e-16 -2.04928e-15 0
rhumerus -33.4734 46.7603 -114.402
rradius 76.9612 0 0
rwrist 5.68452 0 0
rhand -23.7319 -23.7615 0
rfingers 7.12502 0 0
rthumb 2.7376 -773.759 0
788
root 1.64 16.4489 19.3407 -9.35709 62.909 344.42
lfemur -39.7125 7.82018 -13.2856
ltibia 53.5884 0 0
lfoot -21.0879 8.24104 0
ltoes 15.7909 0 0
rfemur -14.4226 -16.354 21.0717
rtibia 45.909 0 0
rfoot -23.1996 -27.3274 0
rtoes -24.4033 0 0
lowerback 1.19089 4.49462 0.709403
upperback -0.727397 6.01153 -3.07548
thorax -1.0104 3.00537 -3.66307
lowerneck -5.63614 -5.48724 -0.0923352
upperneck -2.31142 -7.25132 4.2778
head 0.39973 -3.57199 1.18534
lclavicle -1.05909e-14 -1.47746e-15 0
lhumerus -55.9331 -10.2556 94.0614
lradius 69.8878 0 0
lwrist 18.2298 0 0
lhand -16.4313 -1.35137 0
lfingers 7.12502 0 0
lthumb 9.78388 28.4039 0
rclavicle -1.05909e-14 -1.47746e-15 0
rhumerus -33.7759 46.5867 -114.67
rradius 76.5915 0 0
rwrist 5.56402 0 0
rhand -23.7415 -24.301 0
rfingers 7.12502 0 0
rthumb 2.72851 -774.302 0
789
root 1.63242 16.4667 19.4353 -7.75172 59.4174 346.04
lfemur -39.838 6.51791 -12.9323
ltibia 53.8608 0 0
lfoot -20.9514 6.39502 0
ltoes 15.0559 0 0
rfemur -14.3624 -15.2792 20.9194
rtibia 45.4569 0 0
rfoot -23.2425 -25.9292 0
rtoes -23.859 0 0
lowerback 1.24021 4.48264 0.93087
upperback -0.672879 5.99894 -2.95036
thorax -0.974084 2.9977 -3.65907
lowerneck -5.68231 -5.32761 0.00665163
upperneck -2.2236 -7.05074 4.11707
head 0.41959 -3.47355 1.12145
lclavicle -2.14937e-14 -9.09764e-16 0
lhumerus -55.8834 -10.0648 93.9222
lradius 69.627 0 0
lwrist 19.0557 0 0
lhand -16.0845 -0.800845 0
lfingers 7.12502 0 0
lthumb 10.1185 28.9377 0
rclavicle -2.14937e-14 -9.09764e-16 0
rhumerus -34.0516 46.4189 -114.917
rradius 76.2224 0 0
rwrist 5.4361 0 0
rhand -23.7291 -24.835 0
rfingers 7.12502 0 0
rthumb 2.74059 -774.839 0
790
root 1.62483 16.4845 19.5298 -6.28158 55.84 347.516
lfemur -39.961 5.22732 -12.5728
ltibia 54.0957 0 0
lfoot -20.8121 4.57585 0
ltoes 14.3275 0 0
rfemur -14.2883 -14.2018 20.7707
rtibia 45.0149 0 0
rfoot -23.2497 -24.5081 0
rtoes -23.2761 0 0
lowerback 1.29024 4.47427 1.15202
upperback -0.618089 5.99098 -2.82338
thorax -0.937747 2.99243 -3.653
lowerneck -5.7276 -5.168 0.106922
upperneck -2.13303 -6.8503 3.95636
head 0.440385 -3.37509 1.05731
lclavicle -3.23103e-14 -3.52368e-16 0
lhumerus -55.826 -9.87162 93.7768
lradius 69.3407 0 0
lwrist 19.8697 0 0
lhand -15.742 -0.253343 0
lfingers 7.12502 0 0
lthumb 10.4489 29.4681 0
rclavicle -3.23103e-14 -3.52368e-16 0
rhumerus -34.3007 46.2574 -115.141
rradius 75.8549 0 0
rwrist 5.30067 0 0
rhand -23.6926 -25.3567 0
rfingers 7.12502 0 0
rthumb 2.77597 -775.362 0
791
root 1.61725 16.5023 19.6243 -4.93084 52.2233 348.863
lfemur -40.0778 3.96296 -12.2058
ltibia 54.2789 0 0
lfoot -20.6658 2.81154 0
ltoes 13.6182 0 0
rfemur -14.1943 -13.1289 20.6279
rtibia 44.5738 0 0
rfoot -23.2288 -23.0859 0
rtoes -22.6751 0 0
lowerback 1.33932 4.47003 1.37195
upperback -0.56381 5.98831 -2.69553
thorax -0.901166 2.98989 -3.64521
lowerneck -5.77138 -5.00896 0.20827
upperneck -2.04059 -6.65066 3.79683
head 0.461829 -3.27696 0.993351
lclavicle -4.28718e-14 1.88542e-16 0
lhumerus -55.7625 -9.67774 93.6274
lradius 69.0306 0 0
lwrist 20.6609 0 0
lhand -15.4035 0.286184 0
lfingers 7.12502 0 0
lthumb 10.7755 29.9902 0
rclavicle -4.28718e-14 1.88542e-16 0
rhumerus -34.5233 46.1027 -115.341
rradius 75.4896 0 0
rwrist 5.15759 0 0
rhand -23.6296 -25.8593 0
rfingers 7.12502 0 0
rthumb 2.83682 -775.865 0
792
root 1.60966 16.52 19.7188 -3.68365 48.6137 350.096
lfemur -40.185 2.73936 -11.8298
ltibia 54.3959 0 0
lfoot -20.5086 1.13011 0
ltoes 12.9406 0 0
rfemur -14.0742 -12.0671 20.4932
rtibia 44.124 0 0
rfoot -23.1877 -21.6846 0
rtoes -22.0761 0 0
lowerback 1.3858 4.47041 1.58977
upperback -0.510824 5.99159 -2.5678
thorax -0.864114 2.99043 -3.63605
lowerneck -5.81302 -4.85107 0.31049
upperneck -1.94714 -6.4525 3.63967
head 0.483639 -3.17949 0.929984
lclavicle -5.30092e-14 7.06786e-16 0
lhumerus -55.6942 -9.48488 93.4761
lradius 68.6983 0 0
lwrist 21.4185 0 0
lhand -15.0689 0.812786 0
lfingers 7.12502 0 0
lthumb 11.0982 30.4991 0
rclavicle -5.30092e-14 7.06786e-16 0
rhumerus -34.7193 45.9551 -115.516
rradius 75.1273 0 0
rwrist 5.00677 0 0
rhand -23.538 -26.3362 0
rfingers 7.12502 0 0
rthumb 2.92529 -776.34 0
793
root 1.60208 16.5378 19.8133 -2.52417 45.0576 351.23
lfemur -40.279 1.57105 -11.4432
ltibia 54.4324 0 0
lfoot -20.3364 -0.440429 0
ltoes 12.3073 0 0
rfemur -13.9218 -11.0233 20.3689
rtibia 43.6563 0 0
rfoot -23.1341 -20.3262 0
rtoes -21.4996 0 0
lowerback 1.42803 4.47594 1.80459
upperback -0.459915 6.00149 -2.44116
thorax -0.82636 2.99438 -3.62587
lowerneck -5.85189 -4.69488 0.413377
upperneck -1.85354 -6.2565 3.48604
head 0.505527 -3.08303 0.867633
lclavicle -6.25535e-14 1.19618e-15 0
lhumerus -55.6229 -9.29474 93.3248
lradius 68.3455 0 0
lwrist 22.1317 0 0
lhand -14.7381 1.32151 0
lfingers 7.12502 0 0
lthumb 11.4172 30.9898 0
rclavicle -6.25535e-14 1.19618e-15 0
rhumerus -34.8891 45.8152 -115.663
rradius 74.7689 0 0
rwrist 4.84807 0 0
rhand -23.4155 -26.7804 0
rfingers 7.12502 0 0
rthumb 3.04351 -776.781 0
794
root 1.59449 16.5556 19.9078 -1.43654 41.6015 352.278
lfemur -40.3562 0.472577 -11.0448
ltibia 54.3741 0 0
lfoot -20.1449 -1.87207 0
ltoes 11.7307 0 0
rfemur -13.7312 -10.0043 20.2573
rtibia 43.1613 0 0
rfoot -23.0759 -19.0326 0
rtoes -20.966 0 0
lowerback 1.46434 4.48712 2.0155
upperback -0.411866 6.01867 -2.31662
thorax -0.787678 3.00208 -3.61502
lowerneck -5.88739 -4.54099 0.516724
upperneck -1.76067 -6.06335 3.33711
head 0.52721 -2.98791 0.806719
lclavicle -7.13358e-14 1.65055e-15 0
lhumerus -55.5499 -9.10903 93.1759
lradius 67.974 0 0
lwrist 22.7896 0 0
lhand -14.411 1.80742 0
lfingers 7.12502 0 0
lthumb 11.7327 31.4575 0
rclavicle -7.13358e-14 1.65055e-15 0
rhumerus -35.0326 45.6833 -115.782
rradius 74.4151 0 0
rwrist 4.68138 0 0
rhand -23.26 -27.1853 0
rfingers 7.12502 0 0
rthumb 3.19365 -777.18 0
